<svg width="24" height="24" xmlns="http://www.w3.org/2000/svg" xmlns:undefined="http://www.bohemiancoding.com/sketch/ns" version="1.1">
 <title>icon/24/icon-settings</title>
 <desc>Created with Sketch.</desc>

 <g>
  <title>Layer 1</title>
  <g stroke="null"  fill-rule="evenodd" fill="none" id="out">
   <path stroke="null"  fill="#000000" id="path" d="m20.93375,13.17799c0.04808,-0.38465 0.08416,-0.7693 0.08416,-1.17799c0,-0.40869 -0.03607,-0.79335 -0.08416,-1.178l2.5363,-1.98335c0.22838,-0.1803 0.28848,-0.50484 0.14424,-0.7693l-2.40406,-4.15903c-0.14425,-0.26445 -0.4688,-0.36062 -0.73324,-0.26445l-2.99307,1.20203c-0.62506,-0.4808 -1.29818,-0.87748 -2.03142,-1.17799l-0.45677,-3.18538c-0.03606,-0.28849 -0.28849,-0.50486 -0.589,-0.50486l-4.80813,0c-0.30051,0 -0.55293,0.21637 -0.589,0.50486l-0.45676,3.18538c-0.73324,0.30051 -1.40638,0.7092 -2.03144,1.17799l-2.99306,-1.20203c-0.27648,-0.10818 -0.589,0 -0.73324,0.26445l-2.40407,4.15903c-0.15627,0.26445 -0.08414,0.589 0.14424,0.7693l2.5363,1.98335c-0.04808,0.38465 -0.08414,0.78132 -0.08414,1.178c0,0.39666 0.03606,0.79334 0.08414,1.17799l-2.5363,1.98335c-0.22838,0.18031 -0.28848,0.50486 -0.14424,0.7693l2.40407,4.15903c0.14424,0.26445 0.46879,0.36062 0.73324,0.26445l2.99306,-1.20203c0.62506,0.48082 1.2982,0.87748 2.03144,1.17799l0.45676,3.18539c0.03607,0.28848 0.28849,0.50484 0.589,0.50484l4.80813,0c0.30051,0 0.55294,-0.21637 0.589,-0.50484l0.45677,-3.18539c0.73324,-0.30051 1.40637,-0.7092 2.03142,-1.17799l2.99307,1.20203c0.27646,0.10818 0.58899,0 0.73324,-0.26445l2.40406,-4.15903c0.14424,-0.26444 0.08414,-0.58899 -0.14424,-0.7693l-2.5363,-1.98335l0,0l0,0zm-8.93108,3.02911c-2.31993,0 -4.20711,-1.88718 -4.20711,-4.2071c0,-2.31993 1.88718,-4.20711 4.20711,-4.20711c2.31991,0 4.20711,1.88718 4.20711,4.20711c0,2.31991 -1.8872,4.2071 -4.20711,4.2071l0,0l0,0z"/>
  </g>
 </g>
</svg>