<svg width="704" height="611" viewBox="0 0 704 611" fill="none" xmlns="http://www.w3.org/2000/svg">
<g clip-path="url(#clip0_82_24)">
<g clip-path="url(#clip1_82_24)">
<rect x="100" y="37" width="530" height="530" rx="66" stroke="black" stroke-width="70"/>
</g>
<path d="M369.875 460.66C348.286 460.66 330.785 443.159 330.785 421.571V44.1787C330.785 22.5901 348.286 5.08917 369.875 5.08917V5.08917C391.464 5.08917 408.965 22.5902 408.965 44.1787V421.571C408.965 443.159 391.464 460.66 369.875 460.66V460.66Z" fill="black"/>
<path d="M213.439 199.608C198.174 184.342 198.174 159.592 213.439 144.327L342.093 15.6729C357.359 0.407479 382.109 0.407473 397.374 15.6729V15.6729C412.64 30.9383 412.64 55.6884 397.374 70.9539L268.72 199.608C253.455 214.873 228.705 214.873 213.439 199.608V199.608Z" fill="black"/>
<path d="M526.014 200.318C510.749 215.584 485.999 215.584 470.733 200.318L342.079 71.6646C326.814 56.3992 326.814 31.649 342.079 16.3836V16.3836C357.345 1.11819 382.095 1.11819 397.36 16.3836L526.014 145.038C541.28 160.303 541.28 185.053 526.014 200.318V200.318Z" fill="black"/>
</g>
<defs>
<clipPath id="clip0_82_24">
<rect width="704" height="611" fill="white"/>
</clipPath>
<clipPath id="clip1_82_24">
<rect width="704" height="611" fill="white" transform="translate(0 302)"/>
</clipPath>
</defs>
</svg>
