<svg width="106.002" xmlns="http://www.w3.org/2000/svg" height="72" id="screenshot-1e78534d-ce9d-80ab-8006-4be63dc8802a" viewBox="0 0 106.002 72" xmlns:xlink="http://www.w3.org/1999/xlink" fill="none" version="1.1"><g id="shape-1e78534d-ce9d-80ab-8006-4be63dc8802a" rx="0" ry="0"><g id="shape-1e78534d-ce9d-80ab-8006-4be63dc8802b"><g class="fills" id="fills-1e78534d-ce9d-80ab-8006-4be63dc8802b"><rect rx="5" ry="5" x="0" y="1.1368683772161603e-13" transform="matrix(1.000000, 0.000000, 0.000000, 1.000000, 0.000000, 0.000000)" width="106" height="72" style="fill: rgb(255, 255, 255); fill-opacity: 1;"/></g></g><g id="shape-1e78534d-ce9d-80ab-8006-4be63dc8802c"><g class="fills" id="fills-1e78534d-ce9d-80ab-8006-4be63dc8802c"><path d="M5.000000001273293,0 h20 a0,0 0 0 1 0,0 v72 a0,0 0 0 1 0,0 h-20 a5,5 0 0 1 -5,-5 v-62 a5,5 0 0 1 5,-5 z" x="1.2732925824820995e-9" y="0" transform="matrix(1.000000, 0.000000, 0.000000, 1.000000, 0.000000, 0.000000)" width="25" height="72" style="fill: rgb(255, 255, 255); fill-opacity: 1;"/></g></g><g id="shape-1e78534d-ce9d-80ab-8006-4be63dc8802d"><g class="fills" id="fills-1e78534d-ce9d-80ab-8006-4be63dc8802d"><path d="M5.000000001273293,1.1368683772161603e-13 h96 a5,5 0 0 1 5,5 v0 a0,0 0 0 1 0,0 h-106 a0,0 0 0 1 0,0 v0 a5,5 0 0 1 5,-5 z" x="1.2732925824820995e-9" y="1.1368683772161603e-13" transform="matrix(1.000000, 0.000000, 0.000000, 1.000000, 0.000000, 0.000000)" width="106" height="5" style="fill: rgb(255, 255, 255); fill-opacity: 1;"/></g></g><g id="shape-1e78534d-ce9d-80ab-8006-4be63dc8802e"><g class="fills" id="fills-1e78534d-ce9d-80ab-8006-4be63dc8802e"><rect rx="0" ry="0" x="0.0008127773689921014" y="5.0002595755994435" transform="matrix(1.000000, -0.000005, 0.001626, 0.999999, -0.008941, 0.000268)" width="106.00000000000364" height="0.9999999999998863" style="fill: rgb(224, 224, 224); fill-opacity: 1;"/></g></g><g id="shape-1e78534d-ce9d-80ab-8006-4be63dc8802f"><g class="fills" id="fills-1e78534d-ce9d-80ab-8006-4be63dc8802f"><rect rx="0" ry="0" x="24.000000001273293" y="0" transform="matrix(1.000000, 0.000000, 0.000000, 1.000000, 0.000000, 0.000000)" width="1" height="72" style="fill: rgb(224, 224, 224); fill-opacity: 1;"/></g></g><g id="shape-1e78534d-ce9d-80ab-8006-4be63dc8e173"><g class="fills" id="fills-1e78534d-ce9d-80ab-8006-4be63dc8e173"><rect rx="1.75" ry="1.75" x="6.500000001273293" y="8" transform="matrix(1.000000, 0.000000, 0.000000, 1.000000, 0.000000, 0.000000)" width="16" height="3.5" style="fill: rgb(130, 130, 130); fill-opacity: 1;"/></g></g><g id="shape-1e78534d-ce9d-80ab-8006-4be63dc8e174"><g class="fills" id="fills-1e78534d-ce9d-80ab-8006-4be63dc8e174"><rect rx="1.75" ry="1.75" x="6.500000001273293" y="13.5" transform="matrix(1.000000, 0.000000, 0.000000, 1.000000, 0.000000, 0.000000)" width="16" height="3.5" style="fill: rgb(130, 130, 130); fill-opacity: 1;"/></g></g><g id="shape-1e78534d-ce9d-80ab-8006-4be63dc8e175"><g class="fills" id="fills-1e78534d-ce9d-80ab-8006-4be63dc8e175"><rect rx="1.75" ry="1.75" x="6.500000001273293" y="19" transform="matrix(1.000000, 0.000000, 0.000000, 1.000000, 0.000000, 0.000000)" width="16" height="3.5" style="fill: rgb(130, 130, 130); fill-opacity: 1;"/></g></g><g id="shape-1e78534d-ce9d-80ab-8006-4be63dc8e176"><g class="fills" id="fills-1e78534d-ce9d-80ab-8006-4be63dc8e176"><rect rx="1.75" ry="1.75" x="1.5000000012732926" y="8" transform="matrix(1.000000, 0.000000, 0.000000, 1.000000, 0.000000, 0.000000)" width="3.5" height="3.5" style="fill: rgb(0, 165, 140); fill-opacity: 1;"/></g></g><g id="shape-1e78534d-ce9d-80ab-8006-4be63dc8e177"><g class="fills" id="fills-1e78534d-ce9d-80ab-8006-4be63dc8e177"><rect rx="1.75" ry="1.75" x="1.5000000012732926" y="13.5" transform="matrix(1.000000, 0.000000, 0.000000, 1.000000, 0.000000, 0.000000)" width="3.5" height="3.5" style="fill: rgb(102, 102, 102); fill-opacity: 1;"/></g></g><g id="shape-1e78534d-ce9d-80ab-8006-4be63dc8e178"><g class="fills" id="fills-1e78534d-ce9d-80ab-8006-4be63dc8e178"><rect rx="1.75" ry="1.75" x="1.5000000012732926" y="19" transform="matrix(1.000000, 0.000000, 0.000000, 1.000000, 0.000000, 0.000000)" width="3.5" height="3.5" style="fill: rgb(237, 142, 36); fill-opacity: 1;"/></g></g><g id="shape-1e78534d-ce9d-80ab-8006-4be63dc8e179"><g class="fills" id="fills-1e78534d-ce9d-80ab-8006-4be63dc8e179"><rect rx="1.75" ry="1.75" x="6.500000001273293" y="24.5" transform="matrix(1.000000, 0.000000, 0.000000, 1.000000, 0.000000, 0.000000)" width="16" height="3.5" style="fill: rgb(130, 130, 130); fill-opacity: 1;"/></g></g><g id="shape-1e78534d-ce9d-80ab-8006-4be63dc8e17a"><g class="fills" id="fills-1e78534d-ce9d-80ab-8006-4be63dc8e17a"><rect rx="1.75" ry="1.75" x="6.500000001273293" y="30" transform="matrix(1.000000, 0.000000, 0.000000, 1.000000, 0.000000, 0.000000)" width="16" height="3.5" style="fill: rgb(130, 130, 130); fill-opacity: 1;"/></g></g><g id="shape-1e78534d-ce9d-80ab-8006-4be63dc8e17b"><g class="fills" id="fills-1e78534d-ce9d-80ab-8006-4be63dc8e17b"><rect rx="1.75" ry="1.75" x="6.500000001273293" y="35.5" transform="matrix(1.000000, 0.000000, 0.000000, 1.000000, 0.000000, 0.000000)" width="16" height="3.5" style="fill: rgb(130, 130, 130); fill-opacity: 1;"/></g></g><g id="shape-1e78534d-ce9d-80ab-8006-4be63dc8e17c"><g class="fills" id="fills-1e78534d-ce9d-80ab-8006-4be63dc8e17c"><rect rx="1.75" ry="1.75" x="1.5000000012732926" y="24.5" transform="matrix(1.000000, 0.000000, 0.000000, 1.000000, 0.000000, 0.000000)" width="3.5" height="3.5" style="fill: rgb(204, 50, 73); fill-opacity: 1;"/></g></g><g id="shape-1e78534d-ce9d-80ab-8006-4be63dc8e17d"><g class="fills" id="fills-1e78534d-ce9d-80ab-8006-4be63dc8e17d"><rect rx="1.75" ry="1.75" x="1.5000000012732926" y="30" transform="matrix(1.000000, 0.000000, 0.000000, 1.000000, 0.000000, 0.000000)" width="3.5" height="3.5" style="fill: rgb(204, 50, 73); fill-opacity: 1;"/></g></g><g id="shape-1e78534d-ce9d-80ab-8006-4be63dc8e17e"><g class="fills" id="fills-1e78534d-ce9d-80ab-8006-4be63dc8e17e"><rect rx="1.75" ry="1.75" x="1.5000000012732926" y="35.5" transform="matrix(1.000000, 0.000000, 0.000000, 1.000000, 0.000000, 0.000000)" width="3.5" height="3.5" style="fill: rgb(102, 102, 102); fill-opacity: 1;"/></g></g><g id="shape-1e78534d-ce9d-80ab-8006-4be63dc8e17f"><g class="fills" id="fills-1e78534d-ce9d-80ab-8006-4be63dc8e17f"><rect rx="0.75" ry="0.75" x="27.00000000127511" y="8.5" transform="matrix(1.000000, 0.000000, 0.000000, 1.000000, 0.000000, 0.000000)" width="27" height="1.5" style="fill: rgb(0, 0, 0); fill-opacity: 1;"/></g></g><g id="shape-1e78534d-ce9d-80ab-8006-4be63dc8e180"><g class="fills" id="fills-1e78534d-ce9d-80ab-8006-4be63dc8e180"><rect rx="0.75" ry="0.75" x="27.000000001273293" y="29.5" transform="matrix(1.000000, 0.000000, 0.000000, 1.000000, 0.000000, 0.000000)" width="3.5" height="1.5" style="fill: rgb(0, 0, 0); fill-opacity: 1;"/></g></g><g id="shape-1e78534d-ce9d-80ab-8006-4be63dc8e181"><g class="fills" id="fills-1e78534d-ce9d-80ab-8006-4be63dc8e181"><rect rx="0.75" ry="0.75" x="32.00000000127329" y="29.5" transform="matrix(1.000000, 0.000000, 0.000000, 1.000000, 0.000000, 0.000000)" width="11.499999999992724" height="1.5" style="fill: rgb(0, 0, 0); fill-opacity: 1;"/></g></g><g id="shape-1e78534d-ce9d-80ab-8006-4be63dc8e182"><g class="fills" id="fills-1e78534d-ce9d-80ab-8006-4be63dc8e182"><rect rx="0.75" ry="0.75" x="44.50000000127329" y="29.5" transform="matrix(1.000000, 0.000000, 0.000000, 1.000000, 0.000000, 0.000000)" width="1.5" height="1.5" style="fill: rgb(0, 0, 0); fill-opacity: 1;"/></g></g><g id="shape-1e78534d-ce9d-80ab-8006-4be63dc8e183"><g class="fills" id="fills-1e78534d-ce9d-80ab-8006-4be63dc8e183"><rect rx="0.75" ry="0.75" x="56.50000000127329" y="8.5" transform="matrix(1.000000, 0.000000, 0.000000, 1.000000, 0.000000, 0.000000)" width="18" height="1.5" style="fill: rgb(0, 0, 0); fill-opacity: 1;"/></g></g><g id="shape-1e78534d-ce9d-80ab-8006-4be63dc8e184"><g class="fills" id="fills-1e78534d-ce9d-80ab-8006-4be63dc8e184"><rect rx="0.75" ry="0.75" x="27.000000001271474" y="11.5" transform="matrix(1.000000, 0.000000, 0.000000, 1.000000, 0.000000, 0.000000)" width="11" height="1.5" style="fill: rgb(0, 0, 0); fill-opacity: 1;"/></g></g><g id="shape-1e78534d-ce9d-80ab-8006-4be63dc8e185"><g class="fills" id="fills-1e78534d-ce9d-80ab-8006-4be63dc8e185"><rect rx="0.75" ry="0.75" x="39.50000000127329" y="11.5" transform="matrix(1.000000, 0.000000, 0.000000, 1.000000, 0.000000, 0.000000)" width="11" height="1.5" style="fill: rgb(0, 0, 0); fill-opacity: 1;"/></g></g><g id="shape-1e78534d-ce9d-80ab-8006-4be63dc8e186"><g class="fills" id="fills-1e78534d-ce9d-80ab-8006-4be63dc8e186"><rect rx="0.75" ry="0.75" x="52.00000000127329" y="11.5" transform="matrix(1.000000, 0.000000, 0.000000, 1.000000, 0.000000, 0.000000)" width="17" height="1.5" style="fill: rgb(0, 0, 0); fill-opacity: 1;"/></g></g><g id="shape-1e78534d-ce9d-80ab-8006-4be63dc8e187"><g class="fills" id="fills-1e78534d-ce9d-80ab-8006-4be63dc8e187"><rect rx="0.75" ry="0.75" x="42.50000000127329" y="17.5" transform="matrix(1.000000, 0.000000, 0.000000, 1.000000, 0.000000, 0.000000)" width="17" height="1.5" style="fill: rgb(0, 0, 0); fill-opacity: 1;"/></g></g><g id="shape-1e78534d-ce9d-80ab-8006-4be63dc8e188"><g class="fills" id="fills-1e78534d-ce9d-80ab-8006-4be63dc8e188"><rect rx="0.75" ry="0.75" x="34.50000000127329" y="20.5" transform="matrix(1.000000, 0.000000, 0.000000, 1.000000, 0.000000, 0.000000)" width="21" height="1.5" style="fill: rgb(0, 0, 0); fill-opacity: 1;"/></g></g><g id="shape-1e78534d-ce9d-80ab-8006-4be63dc8e189"><g class="fills" id="fills-1e78534d-ce9d-80ab-8006-4be63dc8e189"><rect rx="0.75" ry="0.75" x="34.50000000127329" y="23.5" transform="matrix(1.000000, 0.000000, 0.000000, 1.000000, 0.000000, 0.000000)" width="12" height="1.5" style="fill: rgb(0, 0, 0); fill-opacity: 1;"/></g></g><g id="shape-1e78534d-ce9d-80ab-8006-4be63dc8e18a"><g class="fills" id="fills-1e78534d-ce9d-80ab-8006-4be63dc8e18a"><rect rx="0.75" ry="0.75" x="47.50000000127329" y="23.5" transform="matrix(1.000000, 0.000000, 0.000000, 1.000000, 0.000000, 0.000000)" width="12" height="1.5" style="fill: rgb(0, 0, 0); fill-opacity: 1;"/></g></g><g id="shape-1e78534d-ce9d-80ab-8006-4be63dc8e18b"><g class="fills" id="fills-1e78534d-ce9d-80ab-8006-4be63dc8e18b"><rect rx="0.75" ry="0.75" x="27.000000001273293" y="14.5" transform="matrix(1.000000, 0.000000, 0.000000, 1.000000, 0.000000, 0.000000)" width="7" height="1.5" style="fill: rgb(0, 0, 0); fill-opacity: 1;"/></g></g><g id="shape-1e78534d-ce9d-80ab-8006-4be63dc8e18c"><g class="fills" id="fills-1e78534d-ce9d-80ab-8006-4be63dc8e18c"><rect rx="0.75" ry="0.75" x="34.50000000127329" y="17.5" transform="matrix(1.000000, 0.000000, 0.000000, 1.000000, 0.000000, 0.000000)" width="7" height="1.5" style="fill: rgb(0, 0, 0); fill-opacity: 1;"/></g></g><g id="shape-1e78534d-ce9d-80ab-8006-4be63dc8e18d"><g class="fills" id="fills-1e78534d-ce9d-80ab-8006-4be63dc8e18d"><rect rx="0.75" ry="0.75" x="35.00000000127329" y="14.5" transform="matrix(1.000000, 0.000000, 0.000000, 1.000000, 0.000000, 0.000000)" width="15.5" height="1.5" style="fill: rgb(0, 0, 0); fill-opacity: 1;"/></g></g><g id="shape-1e78534d-ce9d-80ab-8006-4be63dc8e18e"><g class="fills" id="fills-1e78534d-ce9d-80ab-8006-4be63dc8e18e"><rect rx="0.75" ry="0.75" x="52.00000000127329" y="14.5" transform="matrix(1.000000, 0.000000, 0.000000, 1.000000, 0.000000, 0.000000)" width="17" height="1.5" style="fill: rgb(0, 0, 0); fill-opacity: 1;"/></g></g><g id="shape-1e78534d-ce9d-80ab-8006-4be63dc8e18f"><g class="fills" id="fills-1e78534d-ce9d-80ab-8006-4be63dc8e18f"><rect rx="1.5" ry="1.5" x="5.000000001273293" y="1" transform="matrix(1.000000, 0.000000, 0.000000, 1.000000, 0.000000, 0.000000)" width="17.5" height="3" style="fill: rgb(224, 224, 224); fill-opacity: 1;"/></g></g></g></svg>