<svg width="106" xmlns="http://www.w3.org/2000/svg" height="72" id="screenshot-1e78534d-ce9d-80ab-8006-4be84626293d" viewBox="0 0 106 72" xmlns:xlink="http://www.w3.org/1999/xlink" fill="none" version="1.1"><g id="shape-1e78534d-ce9d-80ab-8006-4be84626293d" rx="0" ry="0"><g id="shape-1e78534d-ce9d-80ab-8006-4be7d4ab0d1a"><defs><clipPath id="frame-clip-1e78534d-ce9d-80ab-8006-4be7d4ab0d1a-render-2" class="frame-clip frame-clip-def"><path d="M5,0 h49 a0,0 0 0 1 0,0 v72 a0,0 0 0 1 0,0 h-49 a5,5 0 0 1 -5,-5 v-62 a5,5 0 0 1 5,-5 z" x="0" y="0" width="54" height="72" transform="matrix(1.000000, 0.000000, 0.000000, 1.000000, 0.000000, 0.000000)"/></clipPath></defs><g><g><g clip-path="url(#frame-clip-1e78534d-ce9d-80ab-8006-4be7d4ab0d1a-render-2)" fill="none"><g class="fills" id="fills-1e78534d-ce9d-80ab-8006-4be7d4ab0d1a"><path d="M5,0 h49 a0,0 0 0 1 0,0 v72 a0,0 0 0 1 0,0 h-49 a5,5 0 0 1 -5,-5 v-62 a5,5 0 0 1 5,-5 z" x="0" y="0" width="54" height="72" transform="matrix(1.000000, 0.000000, 0.000000, 1.000000, 0.000000, 0.000000)" class="frame-background" style="fill: rgb(255, 255, 255); fill-opacity: 0.5;"/></g><g class="frame-children"><g id="shape-1e78534d-ce9d-80ab-8006-4be7d4ab0d1c"><g class="fills" id="fills-1e78534d-ce9d-80ab-8006-4be7d4ab0d1c"><rect rx="5" ry="5" x="0" y="1.1368683772161603e-13" transform="matrix(1.000000, 0.000000, 0.000000, 1.000000, 0.000000, 0.000000)" width="106" height="72" style="fill: rgb(0, 0, 0); fill-opacity: 1;"/></g></g><g id="shape-1e78534d-ce9d-80ab-8006-4be7d4ab0d1d"><g class="fills" id="fills-1e78534d-ce9d-80ab-8006-4be7d4ab0d1d"><path d="M5.000000001273293,0 h20 a0,0 0 0 1 0,0 v72 a0,0 0 0 1 0,0 h-20 a5,5 0 0 1 -5,-5 v-62 a5,5 0 0 1 5,-5 z" x="1.2732925824820995e-9" y="0" transform="matrix(1.000000, 0.000000, 0.000000, 1.000000, 0.000000, 0.000000)" width="25" height="72" style="fill: rgb(8, 11, 14); fill-opacity: 1;"/></g></g><g id="shape-1e78534d-ce9d-80ab-8006-4be7d4ab0d1e"><g class="fills" id="fills-1e78534d-ce9d-80ab-8006-4be7d4ab0d1e"><path d="M5.000000001273293,1.1368683772161603e-13 h96 a5,5 0 0 1 5,5 v0 a0,0 0 0 1 0,0 h-106 a0,0 0 0 1 0,0 v0 a5,5 0 0 1 5,-5 z" x="1.2732925824820995e-9" y="1.1368683772161603e-13" transform="matrix(1.000000, 0.000000, 0.000000, 1.000000, 0.000000, 0.000000)" width="106" height="5" style="fill: rgb(8, 11, 14); fill-opacity: 1;"/></g></g><g id="shape-1e78534d-ce9d-80ab-8006-4be7d4ab0d1f"><g class="fills" id="fills-1e78534d-ce9d-80ab-8006-4be7d4ab0d1f"><rect rx="0" ry="0" x="0.0008127773689921014" y="5.0002595755994435" transform="matrix(1.000000, -0.000005, 0.001626, 0.999999, -0.008941, 0.000268)" width="106.00000000000364" height="0.9999999999998863" style="fill: rgb(28, 38, 45); fill-opacity: 1;"/></g></g><g id="shape-1e78534d-ce9d-80ab-8006-4be7d4ab0d20"><g class="fills" id="fills-1e78534d-ce9d-80ab-8006-4be7d4ab0d20"><rect rx="0" ry="0" x="24.000000001273293" y="0" transform="matrix(1.000000, 0.000000, 0.000000, 1.000000, 0.000000, 0.000000)" width="1" height="72" style="fill: rgb(28, 38, 45); fill-opacity: 1;"/></g></g><g id="shape-1e78534d-ce9d-80ab-8006-4be7d4ab0d21"><g class="fills" id="fills-1e78534d-ce9d-80ab-8006-4be7d4ab0d21"><rect rx="1.75" ry="1.75" x="6.500000001273293" y="8" transform="matrix(1.000000, 0.000000, 0.000000, 1.000000, 0.000000, 0.000000)" width="16" height="3.5" style="fill: rgb(102, 102, 102); fill-opacity: 1;"/></g></g><g id="shape-1e78534d-ce9d-80ab-8006-4be7d4ab0d22"><g class="fills" id="fills-1e78534d-ce9d-80ab-8006-4be7d4ab0d22"><rect rx="1.75" ry="1.75" x="6.500000001273293" y="13.5" transform="matrix(1.000000, 0.000000, 0.000000, 1.000000, 0.000000, 0.000000)" width="16" height="3.5" style="fill: rgb(102, 102, 102); fill-opacity: 1;"/></g></g><g id="shape-1e78534d-ce9d-80ab-8006-4be7d4ab0d23"><g class="fills" id="fills-1e78534d-ce9d-80ab-8006-4be7d4ab0d23"><rect rx="1.75" ry="1.75" x="6.500000001273293" y="19" transform="matrix(1.000000, 0.000000, 0.000000, 1.000000, 0.000000, 0.000000)" width="16" height="3.5" style="fill: rgb(102, 102, 102); fill-opacity: 1;"/></g></g><g id="shape-1e78534d-ce9d-80ab-8006-4be7d4ab0d24"><g class="fills" id="fills-1e78534d-ce9d-80ab-8006-4be7d4ab0d24"><rect rx="1.75" ry="1.75" x="1.5000000012732926" y="8" transform="matrix(1.000000, 0.000000, 0.000000, 1.000000, 0.000000, 0.000000)" width="3.5" height="3.5" style="fill: rgb(0, 165, 140); fill-opacity: 1;"/></g></g><g id="shape-1e78534d-ce9d-80ab-8006-4be7d4ab0d25"><g class="fills" id="fills-1e78534d-ce9d-80ab-8006-4be7d4ab0d25"><rect rx="1.75" ry="1.75" x="1.5000000012732926" y="13.5" transform="matrix(1.000000, 0.000000, 0.000000, 1.000000, 0.000000, 0.000000)" width="3.5" height="3.5" style="fill: rgb(102, 102, 102); fill-opacity: 1;"/></g></g><g id="shape-1e78534d-ce9d-80ab-8006-4be7d4ab0d26"><g class="fills" id="fills-1e78534d-ce9d-80ab-8006-4be7d4ab0d26"><rect rx="1.75" ry="1.75" x="1.5000000012732926" y="19" transform="matrix(1.000000, 0.000000, 0.000000, 1.000000, 0.000000, 0.000000)" width="3.5" height="3.5" style="fill: rgb(237, 142, 36); fill-opacity: 1;"/></g></g><g id="shape-1e78534d-ce9d-80ab-8006-4be7d4ab0d27"><g class="fills" id="fills-1e78534d-ce9d-80ab-8006-4be7d4ab0d27"><rect rx="1.75" ry="1.75" x="6.500000001273293" y="24.5" transform="matrix(1.000000, 0.000000, 0.000000, 1.000000, 0.000000, 0.000000)" width="16" height="3.5" style="fill: rgb(102, 102, 102); fill-opacity: 1;"/></g></g><g id="shape-1e78534d-ce9d-80ab-8006-4be7d4ab0d28"><g class="fills" id="fills-1e78534d-ce9d-80ab-8006-4be7d4ab0d28"><rect rx="1.75" ry="1.75" x="6.500000001273293" y="30" transform="matrix(1.000000, 0.000000, 0.000000, 1.000000, 0.000000, 0.000000)" width="16" height="3.5" style="fill: rgb(102, 102, 102); fill-opacity: 1;"/></g></g><g id="shape-1e78534d-ce9d-80ab-8006-4be7d4ab0d29"><g class="fills" id="fills-1e78534d-ce9d-80ab-8006-4be7d4ab0d29"><rect rx="1.75" ry="1.75" x="6.500000001273293" y="35.5" transform="matrix(1.000000, 0.000000, 0.000000, 1.000000, 0.000000, 0.000000)" width="16" height="3.5" style="fill: rgb(102, 102, 102); fill-opacity: 1;"/></g></g><g id="shape-1e78534d-ce9d-80ab-8006-4be7d4ab0d2a"><g class="fills" id="fills-1e78534d-ce9d-80ab-8006-4be7d4ab0d2a"><rect rx="1.75" ry="1.75" x="1.5000000012732926" y="24.5" transform="matrix(1.000000, 0.000000, 0.000000, 1.000000, 0.000000, 0.000000)" width="3.5" height="3.5" style="fill: rgb(204, 50, 73); fill-opacity: 1;"/></g></g><g id="shape-1e78534d-ce9d-80ab-8006-4be7d4ab0d2b"><g class="fills" id="fills-1e78534d-ce9d-80ab-8006-4be7d4ab0d2b"><rect rx="1.75" ry="1.75" x="1.5000000012732926" y="30" transform="matrix(1.000000, 0.000000, 0.000000, 1.000000, 0.000000, 0.000000)" width="3.5" height="3.5" style="fill: rgb(204, 50, 73); fill-opacity: 1;"/></g></g><g id="shape-1e78534d-ce9d-80ab-8006-4be7d4ab0d2c"><g class="fills" id="fills-1e78534d-ce9d-80ab-8006-4be7d4ab0d2c"><rect rx="1.75" ry="1.75" x="1.5000000012732926" y="35.5" transform="matrix(1.000000, 0.000000, 0.000000, 1.000000, 0.000000, 0.000000)" width="3.5" height="3.5" style="fill: rgb(102, 102, 102); fill-opacity: 1;"/></g></g><g id="shape-1e78534d-ce9d-80ab-8006-4be7d4ab0d2d"><g class="fills" id="fills-1e78534d-ce9d-80ab-8006-4be7d4ab0d2d"><rect rx="0.75" ry="0.75" x="27.00000000127511" y="8.5" transform="matrix(1.000000, 0.000000, 0.000000, 1.000000, 0.000000, 0.000000)" width="23.5" height="1.5" style="fill: rgb(255, 255, 255); fill-opacity: 1;"/></g></g><g id="shape-1e78534d-ce9d-80ab-8006-4be7d4ab0d2e"><g class="fills" id="fills-1e78534d-ce9d-80ab-8006-4be7d4ab0d2e"><rect rx="0.75" ry="0.75" x="27.000000001273293" y="29.5" transform="matrix(1.000000, 0.000000, 0.000000, 1.000000, 0.000000, 0.000000)" width="3.5" height="1.5" style="fill: rgb(255, 255, 255); fill-opacity: 1;"/></g></g><g id="shape-1e78534d-ce9d-80ab-8006-4be7d4ab0d2f"><g class="fills" id="fills-1e78534d-ce9d-80ab-8006-4be7d4ab0d2f"><rect rx="0.75" ry="0.75" x="32.00000000127329" y="29.5" transform="matrix(1.000000, 0.000000, 0.000000, 1.000000, 0.000000, 0.000000)" width="11.499999999992724" height="1.5" style="fill: rgb(255, 255, 255); fill-opacity: 1;"/></g></g><g id="shape-1e78534d-ce9d-80ab-8006-4be7d4ab0d30"><g class="fills" id="fills-1e78534d-ce9d-80ab-8006-4be7d4ab0d30"><rect rx="0.75" ry="0.75" x="44.50000000127329" y="29.5" transform="matrix(1.000000, 0.000000, 0.000000, 1.000000, 0.000000, 0.000000)" width="1.5" height="1.5" style="fill: rgb(255, 255, 255); fill-opacity: 1;"/></g></g><g id="shape-1e78534d-ce9d-80ab-8006-4be7d4ab0d31"><g class="fills" id="fills-1e78534d-ce9d-80ab-8006-4be7d4ab0d31"><rect rx="0.75" ry="0.75" x="56.50000000127329" y="8.5" transform="matrix(1.000000, 0.000000, 0.000000, 1.000000, 0.000000, 0.000000)" width="18" height="1.5" style="fill: rgb(255, 255, 255); fill-opacity: 1;"/></g></g><g id="shape-1e78534d-ce9d-80ab-8006-4be7d4ab0d32"><g class="fills" id="fills-1e78534d-ce9d-80ab-8006-4be7d4ab0d32"><rect rx="0.75" ry="0.75" x="27.000000001271474" y="11.5" transform="matrix(1.000000, 0.000000, 0.000000, 1.000000, 0.000000, 0.000000)" width="11" height="1.5" style="fill: rgb(255, 255, 255); fill-opacity: 1;"/></g></g><g id="shape-1e78534d-ce9d-80ab-8006-4be7d4ab0d33"><g class="fills" id="fills-1e78534d-ce9d-80ab-8006-4be7d4ab0d33"><rect rx="0.75" ry="0.75" x="39.50000000127329" y="11.5" transform="matrix(1.000000, 0.000000, 0.000000, 1.000000, 0.000000, 0.000000)" width="11" height="1.5" style="fill: rgb(255, 255, 255); fill-opacity: 1;"/></g></g><g id="shape-1e78534d-ce9d-80ab-8006-4be7d4ab0d34"><g class="fills" id="fills-1e78534d-ce9d-80ab-8006-4be7d4ab0d34"><rect rx="0.75" ry="0.75" x="52.00000000127329" y="11.5" transform="matrix(1.000000, 0.000000, 0.000000, 1.000000, 0.000000, 0.000000)" width="17" height="1.5" style="fill: rgb(255, 255, 255); fill-opacity: 1;"/></g></g><g id="shape-1e78534d-ce9d-80ab-8006-4be7d4ab0d35"><g class="fills" id="fills-1e78534d-ce9d-80ab-8006-4be7d4ab0d35"><rect rx="0.75" ry="0.75" x="42.50000000127329" y="17.5" transform="matrix(1.000000, 0.000000, 0.000000, 1.000000, 0.000000, 0.000000)" width="8" height="1.5" style="fill: rgb(255, 255, 255); fill-opacity: 1;"/></g></g><g id="shape-1e78534d-ce9d-80ab-8006-4be7d4ab0d36"><g class="fills" id="fills-1e78534d-ce9d-80ab-8006-4be7d4ab0d36"><rect rx="0.75" ry="0.75" x="34.50000000127329" y="20.5" transform="matrix(1.000000, 0.000000, 0.000000, 1.000000, 0.000000, 0.000000)" width="16" height="1.5" style="fill: rgb(255, 255, 255); fill-opacity: 1;"/></g></g><g id="shape-1e78534d-ce9d-80ab-8006-4be7d4ab0d37"><g class="fills" id="fills-1e78534d-ce9d-80ab-8006-4be7d4ab0d37"><rect rx="0.75" ry="0.75" x="34.50000000127329" y="23.5" transform="matrix(1.000000, 0.000000, 0.000000, 1.000000, 0.000000, 0.000000)" width="12" height="1.5" style="fill: rgb(255, 255, 255); fill-opacity: 1;"/></g></g><g id="shape-1e78534d-ce9d-80ab-8006-4be7d4ab0d38"><g class="fills" id="fills-1e78534d-ce9d-80ab-8006-4be7d4ab0d38"><rect rx="0.75" ry="0.75" x="47.50000000127329" y="23.5" transform="matrix(1.000000, 0.000000, 0.000000, 1.000000, 0.000000, 0.000000)" width="3" height="1.5" style="fill: rgb(255, 255, 255); fill-opacity: 1;"/></g></g><g id="shape-1e78534d-ce9d-80ab-8006-4be7d4ab0d39"><g class="fills" id="fills-1e78534d-ce9d-80ab-8006-4be7d4ab0d39"><rect rx="0.75" ry="0.75" x="27.000000001273293" y="14.5" transform="matrix(1.000000, 0.000000, 0.000000, 1.000000, 0.000000, 0.000000)" width="7" height="1.5" style="fill: rgb(255, 255, 255); fill-opacity: 1;"/></g></g><g id="shape-1e78534d-ce9d-80ab-8006-4be7d4ab0d3a"><g class="fills" id="fills-1e78534d-ce9d-80ab-8006-4be7d4ab0d3a"><rect rx="0.75" ry="0.75" x="34.50000000127329" y="17.5" transform="matrix(1.000000, 0.000000, 0.000000, 1.000000, 0.000000, 0.000000)" width="7" height="1.5" style="fill: rgb(255, 255, 255); fill-opacity: 1;"/></g></g><g id="shape-1e78534d-ce9d-80ab-8006-4be7d4ab0d3b"><g class="fills" id="fills-1e78534d-ce9d-80ab-8006-4be7d4ab0d3b"><rect rx="0.75" ry="0.75" x="35.00000000127329" y="14.5" transform="matrix(1.000000, 0.000000, 0.000000, 1.000000, 0.000000, 0.000000)" width="15.5" height="1.5" style="fill: rgb(255, 255, 255); fill-opacity: 1;"/></g></g><g id="shape-1e78534d-ce9d-80ab-8006-4be7d4ab0d3c"><g class="fills" id="fills-1e78534d-ce9d-80ab-8006-4be7d4ab0d3c"><rect rx="0.75" ry="0.75" x="52.00000000127329" y="14.5" transform="matrix(1.000000, 0.000000, 0.000000, 1.000000, 0.000000, 0.000000)" width="17" height="1.5" style="fill: rgb(255, 255, 255); fill-opacity: 1;"/></g></g><g id="shape-1e78534d-ce9d-80ab-8006-4be7d4ab0d3d"><g class="fills" id="fills-1e78534d-ce9d-80ab-8006-4be7d4ab0d3d"><rect rx="1.5" ry="1.5" x="5.000000001273293" y="0.9999999999998863" transform="matrix(1.000000, 0.000000, 0.000000, 1.000000, 0.000000, 0.000000)" width="17.5" height="3" style="fill: rgb(20, 27, 31); fill-opacity: 1;"/></g></g></g></g></g></g></g><g id="shape-1e78534d-ce9d-80ab-8006-4be80a5cfd6e"><defs><clipPath id="frame-clip-1e78534d-ce9d-80ab-8006-4be80a5cfd6e-render-37" class="frame-clip frame-clip-def"><path d="M52,0 h49 a5,5 0 0 1 5,5 v62 a5,5 0 0 1 -5,5 h-49 a0,0 0 0 1 0,0 v-72 a0,0 0 0 1 0,0 z" x="52" y="0" width="54" height="72" transform="matrix(1.000000, 0.000000, 0.000000, 1.000000, 0.000000, 0.000000)"/></clipPath></defs><g><g><g clip-path="url(#frame-clip-1e78534d-ce9d-80ab-8006-4be80a5cfd6e-render-37)" fill="none"><g class="fills" id="fills-1e78534d-ce9d-80ab-8006-4be80a5cfd6e"><path d="M52,0 h49 a5,5 0 0 1 5,5 v62 a5,5 0 0 1 -5,5 h-49 a0,0 0 0 1 0,0 v-72 a0,0 0 0 1 0,0 z" x="52" y="0" width="54" height="72" transform="matrix(1.000000, 0.000000, 0.000000, 1.000000, 0.000000, 0.000000)" class="frame-background" style="fill: rgb(255, 255, 255); fill-opacity: 0.5;"/></g><g class="frame-children"><g id="shape-1e78534d-ce9d-80ab-8006-4be817c4fcdd"><g class="fills" id="fills-1e78534d-ce9d-80ab-8006-4be817c4fcdd"><rect rx="5" ry="5" x="52" y="1.1368683772161603e-13" transform="matrix(1.000000, 0.000000, 0.000000, 1.000000, 0.000000, 0.000000)" width="106" height="72" style="fill: rgb(255, 255, 255); fill-opacity: 1;"/></g></g><g id="shape-1e78534d-ce9d-80ab-8006-4be817c4fcde"><g class="fills" id="fills-1e78534d-ce9d-80ab-8006-4be817c4fcde"><path d="M52.00000000127329,0 h25 a0,0 0 0 1 0,0 v72 a0,0 0 0 1 0,0 h-25 a0,0 0 0 1 0,0 v-72 a0,0 0 0 1 0,0 z" x="52.00000000127329" y="0" transform="matrix(1.000000, 0.000000, 0.000000, 1.000000, 0.000000, 0.000000)" width="25" height="72" style="fill: rgb(255, 255, 255); fill-opacity: 1;"/></g></g><g id="shape-1e78534d-ce9d-80ab-8006-4be817c4fcdf"><g class="fills" id="fills-1e78534d-ce9d-80ab-8006-4be817c4fcdf"><path d="M57.00000000127329,1.1368683772161603e-13 h96 a5,5 0 0 1 5,5 v0 a0,0 0 0 1 0,0 h-106 a0,0 0 0 1 0,0 v0 a5,5 0 0 1 5,-5 z" x="52.00000000127329" y="1.1368683772161603e-13" transform="matrix(1.000000, 0.000000, 0.000000, 1.000000, 0.000000, 0.000000)" width="106" height="5" style="fill: rgb(255, 255, 255); fill-opacity: 1;"/></g></g><g id="shape-1e78534d-ce9d-80ab-8006-4be817c4fce0"><g class="fills" id="fills-1e78534d-ce9d-80ab-8006-4be817c4fce0"><rect rx="0" ry="0" x="52.00081277736899" y="5.0002595755994435" transform="matrix(1.000000, -0.000005, 0.001626, 0.999999, -0.008941, 0.000523)" width="106.00000000000364" height="0.9999999999998863" style="fill: rgb(224, 224, 224); fill-opacity: 1;"/></g></g><g id="shape-1e78534d-ce9d-80ab-8006-4be817c4fce1"><g class="fills" id="fills-1e78534d-ce9d-80ab-8006-4be817c4fce1"><rect rx="0" ry="0" x="76.00000000127329" y="0" transform="matrix(1.000000, 0.000000, 0.000000, 1.000000, 0.000000, 0.000000)" width="1" height="72" style="fill: rgb(224, 224, 224); fill-opacity: 1;"/></g></g><g id="shape-1e78534d-ce9d-80ab-8006-4be817c4fce2"><g class="fills" id="fills-1e78534d-ce9d-80ab-8006-4be817c4fce2"><rect rx="1.75" ry="1.75" x="58.50000000127329" y="8" transform="matrix(1.000000, 0.000000, 0.000000, 1.000000, 0.000000, 0.000000)" width="16" height="3.5" style="fill: rgb(130, 130, 130); fill-opacity: 1;"/></g></g><g id="shape-1e78534d-ce9d-80ab-8006-4be817c4fce3"><g class="fills" id="fills-1e78534d-ce9d-80ab-8006-4be817c4fce3"><rect rx="1.75" ry="1.75" x="58.50000000127329" y="13.5" transform="matrix(1.000000, 0.000000, 0.000000, 1.000000, 0.000000, 0.000000)" width="16" height="3.5" style="fill: rgb(130, 130, 130); fill-opacity: 1;"/></g></g><g id="shape-1e78534d-ce9d-80ab-8006-4be817c4fce4"><g class="fills" id="fills-1e78534d-ce9d-80ab-8006-4be817c4fce4"><rect rx="1.75" ry="1.75" x="58.50000000127329" y="19" transform="matrix(1.000000, 0.000000, 0.000000, 1.000000, 0.000000, 0.000000)" width="16" height="3.5" style="fill: rgb(130, 130, 130); fill-opacity: 1;"/></g></g><g id="shape-1e78534d-ce9d-80ab-8006-4be817c4fce5"><g class="fills" id="fills-1e78534d-ce9d-80ab-8006-4be817c4fce5"><rect rx="1.75" ry="1.75" x="53.50000000127329" y="8" transform="matrix(1.000000, 0.000000, 0.000000, 1.000000, 0.000000, 0.000000)" width="3.5" height="3.5" style="fill: rgb(0, 165, 140); fill-opacity: 1;"/></g></g><g id="shape-1e78534d-ce9d-80ab-8006-4be817c4fce6"><g class="fills" id="fills-1e78534d-ce9d-80ab-8006-4be817c4fce6"><rect rx="1.75" ry="1.75" x="53.50000000127329" y="13.5" transform="matrix(1.000000, 0.000000, 0.000000, 1.000000, 0.000000, 0.000000)" width="3.5" height="3.5" style="fill: rgb(102, 102, 102); fill-opacity: 1;"/></g></g><g id="shape-1e78534d-ce9d-80ab-8006-4be817c4fce7"><g class="fills" id="fills-1e78534d-ce9d-80ab-8006-4be817c4fce7"><rect rx="1.75" ry="1.75" x="53.50000000127329" y="19" transform="matrix(1.000000, 0.000000, 0.000000, 1.000000, 0.000000, 0.000000)" width="3.5" height="3.5" style="fill: rgb(237, 142, 36); fill-opacity: 1;"/></g></g><g id="shape-1e78534d-ce9d-80ab-8006-4be817c4fce8"><g class="fills" id="fills-1e78534d-ce9d-80ab-8006-4be817c4fce8"><rect rx="1.75" ry="1.75" x="58.50000000127329" y="24.5" transform="matrix(1.000000, 0.000000, 0.000000, 1.000000, 0.000000, 0.000000)" width="16" height="3.5" style="fill: rgb(130, 130, 130); fill-opacity: 1;"/></g></g><g id="shape-1e78534d-ce9d-80ab-8006-4be817c4fce9"><g class="fills" id="fills-1e78534d-ce9d-80ab-8006-4be817c4fce9"><rect rx="1.75" ry="1.75" x="58.50000000127329" y="30" transform="matrix(1.000000, 0.000000, 0.000000, 1.000000, 0.000000, 0.000000)" width="16" height="3.5" style="fill: rgb(130, 130, 130); fill-opacity: 1;"/></g></g><g id="shape-1e78534d-ce9d-80ab-8006-4be817c4fcea"><g class="fills" id="fills-1e78534d-ce9d-80ab-8006-4be817c4fcea"><rect rx="1.75" ry="1.75" x="58.50000000127329" y="35.5" transform="matrix(1.000000, 0.000000, 0.000000, 1.000000, 0.000000, 0.000000)" width="16" height="3.5" style="fill: rgb(130, 130, 130); fill-opacity: 1;"/></g></g><g id="shape-1e78534d-ce9d-80ab-8006-4be817c4fceb"><g class="fills" id="fills-1e78534d-ce9d-80ab-8006-4be817c4fceb"><rect rx="1.75" ry="1.75" x="53.50000000127329" y="24.5" transform="matrix(1.000000, 0.000000, 0.000000, 1.000000, 0.000000, 0.000000)" width="3.5" height="3.5" style="fill: rgb(204, 50, 73); fill-opacity: 1;"/></g></g><g id="shape-1e78534d-ce9d-80ab-8006-4be817c4fcec"><g class="fills" id="fills-1e78534d-ce9d-80ab-8006-4be817c4fcec"><rect rx="1.75" ry="1.75" x="53.50000000127329" y="30" transform="matrix(1.000000, 0.000000, 0.000000, 1.000000, 0.000000, 0.000000)" width="3.5" height="3.5" style="fill: rgb(204, 50, 73); fill-opacity: 1;"/></g></g><g id="shape-1e78534d-ce9d-80ab-8006-4be817c4fced"><g class="fills" id="fills-1e78534d-ce9d-80ab-8006-4be817c4fced"><rect rx="1.75" ry="1.75" x="53.50000000127329" y="35.5" transform="matrix(1.000000, 0.000000, 0.000000, 1.000000, 0.000000, 0.000000)" width="3.5" height="3.5" style="fill: rgb(102, 102, 102); fill-opacity: 1;"/></g></g><g id="shape-1e78534d-ce9d-80ab-8006-4be817c4fcee"><g class="fills" id="fills-1e78534d-ce9d-80ab-8006-4be817c4fcee"><rect rx="0.75" ry="0.75" x="79.00000000127511" y="8.5" transform="matrix(1.000000, 0.000000, 0.000000, 1.000000, 0.000000, 0.000000)" width="25" height="1.5" style="fill: rgb(0, 0, 0); fill-opacity: 1;"/></g></g><g id="shape-1e78534d-ce9d-80ab-8006-4be817c4fcef"><g class="fills" id="fills-1e78534d-ce9d-80ab-8006-4be817c4fcef"><rect rx="0.75" ry="0.75" x="79.00000000127329" y="29.5" transform="matrix(1.000000, 0.000000, 0.000000, 1.000000, 0.000000, 0.000000)" width="3.5" height="1.5" style="fill: rgb(0, 0, 0); fill-opacity: 1;"/></g></g><g id="shape-1e78534d-ce9d-80ab-8006-4be817c4fcf0"><g class="fills" id="fills-1e78534d-ce9d-80ab-8006-4be817c4fcf0"><rect rx="0.75" ry="0.75" x="84.00000000127329" y="29.5" transform="matrix(1.000000, 0.000000, 0.000000, 1.000000, 0.000000, 0.000000)" width="11.499999999992724" height="1.5" style="fill: rgb(0, 0, 0); fill-opacity: 1;"/></g></g><g id="shape-1e78534d-ce9d-80ab-8006-4be817c4fcf1"><g class="fills" id="fills-1e78534d-ce9d-80ab-8006-4be817c4fcf1"><rect rx="0.75" ry="0.75" x="96.50000000127329" y="29.5" transform="matrix(1.000000, 0.000000, 0.000000, 1.000000, 0.000000, 0.000000)" width="1.5" height="1.5" style="fill: rgb(0, 0, 0); fill-opacity: 1;"/></g></g><g id="shape-1e78534d-ce9d-80ab-8006-4be817c4fcf2"><g class="fills" id="fills-1e78534d-ce9d-80ab-8006-4be817c4fcf2"><rect rx="0.75" ry="0.75" x="108.50000000127329" y="8.5" transform="matrix(1.000000, 0.000000, 0.000000, 1.000000, 0.000000, 0.000000)" width="18" height="1.5" style="fill: rgb(0, 0, 0); fill-opacity: 1;"/></g></g><g id="shape-1e78534d-ce9d-80ab-8006-4be817c4fcf3"><g class="fills" id="fills-1e78534d-ce9d-80ab-8006-4be817c4fcf3"><rect rx="0.75" ry="0.75" x="79.00000000127147" y="11.5" transform="matrix(1.000000, 0.000000, 0.000000, 1.000000, 0.000000, 0.000000)" width="11" height="1.5" style="fill: rgb(0, 0, 0); fill-opacity: 1;"/></g></g><g id="shape-1e78534d-ce9d-80ab-8006-4be817c4fcf4"><g class="fills" id="fills-1e78534d-ce9d-80ab-8006-4be817c4fcf4"><rect rx="0.75" ry="0.75" x="91.50000000127329" y="11.5" transform="matrix(1.000000, 0.000000, 0.000000, 1.000000, 0.000000, 0.000000)" width="12.5" height="1.5" style="fill: rgb(0, 0, 0); fill-opacity: 1;"/></g></g><g id="shape-1e78534d-ce9d-80ab-8006-4be817c4fcf6"><g class="fills" id="fills-1e78534d-ce9d-80ab-8006-4be817c4fcf6"><rect rx="0.75" ry="0.75" x="94.50000000127329" y="17.5" transform="matrix(1.000000, 0.000000, 0.000000, 1.000000, 0.000000, 0.000000)" width="9.5" height="1.5" style="fill: rgb(0, 0, 0); fill-opacity: 1;"/></g></g><g id="shape-1e78534d-ce9d-80ab-8006-4be817c4fcf7"><g class="fills" id="fills-1e78534d-ce9d-80ab-8006-4be817c4fcf7"><rect rx="0.75" ry="0.75" x="86.50000000127147" y="20.5" transform="matrix(1.000000, 0.000000, 0.000000, 1.000000, 0.000000, 0.000000)" width="17.5" height="1.5" style="fill: rgb(0, 0, 0); fill-opacity: 1;"/></g></g><g id="shape-1e78534d-ce9d-80ab-8006-4be817c4fcf8"><g class="fills" id="fills-1e78534d-ce9d-80ab-8006-4be817c4fcf8"><rect rx="0.75" ry="0.75" x="86.50000000127329" y="23.5" transform="matrix(1.000000, 0.000000, 0.000000, 1.000000, 0.000000, 0.000000)" width="12" height="1.5" style="fill: rgb(0, 0, 0); fill-opacity: 1;"/></g></g><g id="shape-1e78534d-ce9d-80ab-8006-4be817c4fcf9"><g class="fills" id="fills-1e78534d-ce9d-80ab-8006-4be817c4fcf9"><rect rx="0.75" ry="0.75" x="99.50000000127329" y="23.5" transform="matrix(1.000000, 0.000000, 0.000000, 1.000000, 0.000000, 0.000000)" width="4.5" height="1.5" style="fill: rgb(0, 0, 0); fill-opacity: 1;"/></g></g><g id="shape-1e78534d-ce9d-80ab-8006-4be817c4fcfa"><g class="fills" id="fills-1e78534d-ce9d-80ab-8006-4be817c4fcfa"><rect rx="0.75" ry="0.75" x="79.00000000127329" y="14.5" transform="matrix(1.000000, 0.000000, 0.000000, 1.000000, 0.000000, 0.000000)" width="7" height="1.5" style="fill: rgb(0, 0, 0); fill-opacity: 1;"/></g></g><g id="shape-1e78534d-ce9d-80ab-8006-4be817c4fcfb"><g class="fills" id="fills-1e78534d-ce9d-80ab-8006-4be817c4fcfb"><rect rx="0.75" ry="0.75" x="86.50000000127329" y="17.5" transform="matrix(1.000000, 0.000000, 0.000000, 1.000000, 0.000000, 0.000000)" width="7" height="1.5" style="fill: rgb(0, 0, 0); fill-opacity: 1;"/></g></g><g id="shape-1e78534d-ce9d-80ab-8006-4be817c4fcfc"><g class="fills" id="fills-1e78534d-ce9d-80ab-8006-4be817c4fcfc"><rect rx="0.75" ry="0.75" x="87.00000000127147" y="14.5" transform="matrix(1.000000, 0.000000, 0.000000, 1.000000, 0.000000, 0.000000)" width="17" height="1.5" style="fill: rgb(0, 0, 0); fill-opacity: 1;"/></g></g><g id="shape-1e78534d-ce9d-80ab-8006-4be817c4fcfe"><g class="fills" id="fills-1e78534d-ce9d-80ab-8006-4be817c4fcfe"><rect rx="1.5" ry="1.5" x="57.00000000127329" y="1" transform="matrix(1.000000, 0.000000, 0.000000, 1.000000, 0.000000, 0.000000)" width="17.5" height="3" style="fill: rgb(224, 224, 224); fill-opacity: 1;"/></g></g></g></g></g></g></g></g></svg>