<svg width="256" xmlns="http://www.w3.org/2000/svg" height="256" id="screenshot-5a425cc1-eb2e-80f0-8006-4e3b317cf454" viewBox="0 -0 256 256" xmlns:xlink="http://www.w3.org/1999/xlink" fill="none" version="1.1"><g id="shape-5a425cc1-eb2e-80f0-8006-4e3b317cf454"><defs><clipPath id="frame-clip-5a425cc1-eb2e-80f0-8006-4e3b317cf454-render-1" class="frame-clip frame-clip-def"><rect rx="0" ry="0" x="0" y="0" width="256" height="256.0000000000001" transform="matrix(1.000000, 0.000000, 0.000000, 1.000000, 0.000000, 0.000000)"/></clipPath></defs><g><g><g clip-path="url(#frame-clip-5a425cc1-eb2e-80f0-8006-4e3b317cf454-render-1)" fill="none"><g class="fills" id="fills-5a425cc1-eb2e-80f0-8006-4e3b317cf454"><rect width="256" height="256.0000000000001" class="frame-background" x="0" transform="matrix(1.000000, 0.000000, 0.000000, 1.000000, 0.000000, 0.000000)" style="fill: rgb(255, 255, 255); fill-opacity: 0;" ry="0" rx="0" y="0"/></g><g class="frame-children"><g xmlns:xlink="http://www.w3.org/1999/xlink" width="800px" xml:space="preserve" height="800px" id="shape-08fd1c06-fa83-8059-8006-bd2282cc5504" style="fill: rgb(0, 0, 0);" ry="0" rx="0" version="1.1"><g id="shape-08fd1c06-fa83-8059-8006-bd2282ccd582" style="display: none;"><g class="fills" id="fills-08fd1c06-fa83-8059-8006-bd2282ccd582"><rect width="214" height="214.00000000000006" x="21" transform="matrix(1.000000, 0.000000, 0.000000, 1.000000, 0.000000, 0.000000)" style="fill: none;" ry="0" fill="none" rx="0" y="21"/></g></g><g id="shape-08fd1c06-fa83-8059-8006-bd2282ccd583" rx="0" ry="0" style="fill: rgb(0, 0, 0);"><g id="shape-08fd1c06-fa83-8059-8006-bd2282cd0d29" rx="0" ry="0" style="fill: rgb(0, 0, 0);"><g id="shape-08fd1c06-fa83-8059-8006-bd2282cd40ac"><g class="fills" id="fills-08fd1c06-fa83-8059-8006-bd2282cd40ac"><path d="M180.711,86.509C175.496,86.516,170.471,87.303,165.701,88.685C155.731,72.034,137.557,60.866,116.743,60.897C85.272,60.947,59.802,86.499,59.852,117.969C59.852,118.698,59.936,119.406,59.965,120.128C59.463,120.109,58.972,120.054,58.466,120.054C37.742,120.088,20.969,136.913,21.000,157.637C21.034,178.361,37.859,195.134,58.582,195.103L180.884,194.909C210.818,194.861,235.045,170.555,235.000,140.623C234.952,110.690,210.647,86.461,180.711,86.509ZZ" style="fill: rgb(0, 0, 0);"/></g></g></g></g></g></g></g></g></g></g></svg>