<svg width="256" xmlns="http://www.w3.org/2000/svg" height="256" id="screenshot-5a425cc1-eb2e-80f0-8006-4e3b34716c64" viewBox="0 -0 256 256" xmlns:xlink="http://www.w3.org/1999/xlink" fill="none" version="1.1"><g id="shape-5a425cc1-eb2e-80f0-8006-4e3b34716c64"><defs><clipPath id="frame-clip-5a425cc1-eb2e-80f0-8006-4e3b34716c64-render-1" class="frame-clip frame-clip-def"><rect rx="0" ry="0" x="0" y="0" width="256" height="256.0000000000001" transform="matrix(1.000000, 0.000000, 0.000000, 1.000000, 0.000000, 0.000000)"/></clipPath></defs><g><g><g clip-path="url(#frame-clip-5a425cc1-eb2e-80f0-8006-4e3b34716c64-render-1)" fill="none"><g class="fills" id="fills-5a425cc1-eb2e-80f0-8006-4e3b34716c64"><rect width="256" height="256.0000000000001" class="frame-background" x="0" transform="matrix(1.000000, 0.000000, 0.000000, 1.000000, 0.000000, 0.000000)" style="fill: rgb(255, 255, 255); fill-opacity: 0;" ry="0" rx="0" y="0"/></g><g class="frame-children"><g id="shape-08fd1c06-fa83-8059-8006-bd22ab6d861f" width="800px" height="800px" rx="0" ry="0" style="fill: rgb(0, 0, 0);"><g id="shape-08fd1c06-fa83-8059-8006-bd22ab6e34fc" style="display: none;"><g class="fills" id="fills-08fd1c06-fa83-8059-8006-bd22ab6e34fc"><rect width="14" height="14" x="137" transform="matrix(1.000000, 0.000000, 0.000000, 1.000000, 0.000000, 0.000000)" style="fill: none;" ry="0" fill="none" rx="0" y="137.99999999999977"/></g></g><g id="shape-08fd1c06-fa83-8059-8006-bd22ab6e9c59"><g class="fills" id="fills-08fd1c06-fa83-8059-8006-bd22ab6e9c59"><path d="M137.443,121.829L116.582,121.829L116.582,103.271L137.443,103.271L137.443,121.829ZZM137.443,58.000L116.582,58.000L116.582,76.964L137.443,76.964L137.443,58.000ZZM162.124,103.240L141.262,103.240L141.262,121.798L162.124,121.798L162.124,103.240ZZM112.795,80.714L91.933,80.714L91.933,99.491L112.795,99.491L112.795,80.714ZZM137.443,80.714L116.582,80.714L116.582,99.491L137.443,99.491L137.443,80.714ZZM224.802,111.957C220.258,108.926,209.780,107.833,201.732,109.332C200.690,101.834,196.461,95.304,188.761,89.430L184.342,86.525L181.407,90.899C175.600,99.584,174.022,113.894,180.239,123.329C177.494,124.797,172.097,126.797,164.964,126.672L27.771,126.672C25.025,142.544,29.602,163.164,41.658,177.317C53.367,191.033,70.914,198.000,93.859,198.000C143.535,198.000,180.302,175.349,197.503,134.202C204.257,134.335,218.838,134.235,226.317,120.080C226.791,119.298,228.400,115.956,229.000,114.737L224.802,111.957ZZM63.498,103.240L42.668,103.240L42.668,121.798L63.529,121.798L63.498,103.240ZZM88.146,103.240L67.285,103.240L67.285,121.798L88.146,121.798L88.146,103.240ZZM112.795,103.240L91.933,103.240L91.933,121.798L112.795,121.798L112.795,103.240ZZM88.146,80.714L67.285,80.714L67.285,99.491L88.146,99.491L88.146,80.714ZZ" style="fill: rgb(0, 0, 0);"/></g></g></g></g></g></g></g></g></svg>