<svg width="256" xmlns="http://www.w3.org/2000/svg" height="256" id="screenshot-5a425cc1-eb2e-80f0-8006-4e3aaf39e373" viewBox="0 0 256 256" xmlns:xlink="http://www.w3.org/1999/xlink" fill="none" version="1.1"><g id="shape-5a425cc1-eb2e-80f0-8006-4e3aaf39e373" width="256px" height="256px" rx="0" ry="0" style="fill: rgb(0, 0, 0);"><g id="shape-5a425cc1-eb2e-80f0-8006-4e3ac7eeba4f" xml:space="preserve" width="114.8625" height="114.8625" rx="0" ry="0" style="fill: rgb(0, 0, 0);"><g id="shape-5a425cc1-eb2e-80f0-8006-4e3ac7ef2185" style="display: none;"><g class="fills" id="fills-5a425cc1-eb2e-80f0-8006-4e3ac7ef2185"><rect width="256" height="256.0000000000002" x="0" transform="matrix(1.000000, 0.000000, 0.000000, 1.000000, 0.000000, 0.000000)" style="fill: none;" ry="0" fill="none" rx="0" y="0"/></g></g><g id="shape-5a425cc1-eb2e-80f0-8006-4e3ac7ef531f"><g class="fills" id="fills-5a425cc1-eb2e-80f0-8006-4e3ac7ef531f"><path d="M228.075,118.736L137.261,27.923C132.034,22.692,123.551,22.692,118.317,27.923L99.461,46.783L123.382,70.705C128.941,68.828,135.316,70.088,139.746,74.519C144.203,78.977,145.452,85.407,143.526,90.987L166.582,114.041C172.161,112.118,178.594,113.361,183.051,117.824C189.276,124.047,189.276,134.135,183.051,140.364C176.821,146.592,166.735,146.592,160.503,140.364C155.821,135.677,154.663,128.797,157.037,123.028L135.533,101.525L135.533,158.110C137.049,158.861,138.481,159.862,139.746,161.123C145.971,167.348,145.971,177.435,139.746,183.669C133.521,189.891,123.428,189.891,117.207,183.669C110.982,177.435,110.982,167.348,117.207,161.123C118.746,159.586,120.527,158.424,122.428,157.645L122.428,100.538C120.527,99.759,118.750,98.606,117.207,97.059C112.492,92.346,111.358,85.425,113.776,79.634L90.194,56.048L27.923,118.315C22.692,123.551,22.692,132.033,27.923,137.265L118.741,228.077C123.970,233.308,132.449,233.308,137.686,228.077L228.075,137.685C233.308,132.453,233.308,123.966,228.075,118.736Z" style="fill: rgb(16, 15, 13);"/></g></g></g></g></svg>