<svg width="256" xmlns="http://www.w3.org/2000/svg" height="256" id="screenshot-5a425cc1-eb2e-80f0-8006-4e3b1bda8153" viewBox="0 -0 256 256" xmlns:xlink="http://www.w3.org/1999/xlink" fill="none" version="1.1"><g id="shape-5a425cc1-eb2e-80f0-8006-4e3b1bda8153"><defs><clipPath id="frame-clip-5a425cc1-eb2e-80f0-8006-4e3b1bda8153-render-1" class="frame-clip frame-clip-def"><rect rx="0" ry="0" x="0" y="0" width="256" height="256.0000000000001" transform="matrix(1.000000, 0.000000, 0.000000, 1.000000, 0.000000, 0.000000)"/></clipPath></defs><g><g><g clip-path="url(#frame-clip-5a425cc1-eb2e-80f0-8006-4e3b1bda8153-render-1)" fill="none"><g class="fills" id="fills-5a425cc1-eb2e-80f0-8006-4e3b1bda8153"><rect width="256" height="256.0000000000001" class="frame-background" x="0" transform="matrix(1.000000, 0.000000, 0.000000, 1.000000, 0.000000, 0.000000)" style="fill: rgb(255, 255, 255); fill-opacity: 0;" ry="0" rx="0" y="0"/></g><g class="frame-children"><g xmlns:xlink="http://www.w3.org/1999/xlink" width="800px" xml:space="preserve" height="800px" id="shape-08fd1c06-fa83-8059-8006-bd226c92a3fd" style="fill: rgb(0, 0, 0);" ry="0" rx="0" version="1.1"><g id="shape-08fd1c06-fa83-8059-8006-bd226c937c05" style="display: none;"><g class="fills" id="fills-08fd1c06-fa83-8059-8006-bd226c937c05"><rect width="195" height="195.00000000000006" x="35" transform="matrix(1.000000, 0.000000, 0.000000, 1.000000, 0.000000, 0.000000)" style="fill: none;" ry="0" fill="none" rx="0" y="26.999999999999773"/></g></g><g id="shape-08fd1c06-fa83-8059-8006-bd226c937c06" rx="0" ry="0" style="fill: rgb(0, 0, 0);"><g id="shape-08fd1c06-fa83-8059-8006-bd226c937c07" rx="0" ry="0" style="fill: rgb(0, 0, 0);"><g id="shape-08fd1c06-fa83-8059-8006-bd226c941ca4"><g class="fills" id="fills-08fd1c06-fa83-8059-8006-bd226c941ca4"><path d="M61.684,222.000L202.498,222.000C209.504,222.000,215.185,216.320,215.185,209.313L215.185,106.560C215.185,99.553,209.504,93.873,202.498,93.873L200.061,93.873C199.454,56.898,169.208,27.000,132.091,27.000C94.975,27.000,64.728,56.898,64.123,93.873L61.687,93.873C54.680,93.873,49.000,99.553,49.000,106.560L49.000,209.316C49.000,216.320,54.678,222.000,61.684,222.000ZZM144.416,158.609L144.416,189.406C144.416,195.612,139.383,200.646,133.177,200.646L131.003,200.646C124.797,200.646,119.764,195.613,119.764,189.406L119.764,158.609C113.167,154.488,108.761,147.183,108.761,138.830C108.761,125.948,119.204,115.502,132.088,115.502C144.973,115.502,155.416,125.945,155.416,138.830C155.419,147.183,151.014,154.488,144.416,158.609ZZM132.091,53.974C154.331,53.974,172.453,71.775,173.058,93.873L91.124,93.873C91.729,71.777,109.851,53.974,132.091,53.974ZZ" style="fill: rgb(0, 0, 0);"/></g></g></g></g></g></g></g></g></g></g></svg>