<svg width="256" xmlns="http://www.w3.org/2000/svg" height="256" id="screenshot-0a2e693c-b0a7-80a0-8005-df276b0c186d" viewBox="0 0 256 256" xmlns:xlink="http://www.w3.org/1999/xlink" fill="none" version="1.1"><g id="shape-0a2e693c-b0a7-80a0-8005-df276b0c186d" width="256px" height="256px" rx="0" ry="0" style="fill: rgb(0, 0, 0);"><g id="shape-b740a10b-06f6-8056-8005-dfa49231287e"><g class="fills" id="fills-b740a10b-06f6-8056-8005-dfa49231287e"><path d="M24.000,200.000C24.000,191.169,31.169,184.000,40.000,184.000L216.000,184.000C224.831,184.000,232.000,191.169,232.000,200.000L232.000,203.000C232.000,211.831,224.831,219.000,216.000,219.000L40.000,219.000C31.169,219.000,24.000,211.831,24.000,203.000L24.000,200.000ZM192.000,201.500L192.000,201.500ZC192.000,205.087,194.913,208.000,198.500,208.000L210.500,208.000C214.087,208.000,217.000,205.087,217.000,201.500L217.000,201.500C217.000,197.913,214.087,195.000,210.500,195.000L198.500,195.000C194.913,195.000,192.000,197.913,192.000,201.500Z" style="fill: rgb(0, 0, 0); fill-opacity: 1;"/></g></g><g id="shape-b740a10b-06f6-8056-8005-dfa4ae989f78"><g class="fills" id="fills-b740a10b-06f6-8056-8005-dfa4ae989f78"><path d="M24.000,56.000C24.000,47.169,31.169,40.000,40.000,40.000L216.000,40.000C224.831,40.000,232.000,47.169,232.000,56.000L232.000,162.000C232.000,170.831,224.831,178.000,216.000,178.000L40.000,178.000C31.169,178.000,24.000,170.831,24.000,162.000L24.000,56.000ZM42.000,63.000L42.000,154.000C42.000,158.415,45.585,162.000,50.000,162.000L207.000,162.000C211.415,162.000,215.000,158.415,215.000,154.000L215.000,63.000C215.000,58.585,211.415,55.000,207.000,55.000L50.000,55.000C45.585,55.000,42.000,58.585,42.000,63.000Z" style="fill: rgb(0, 0, 0); fill-opacity: 1;"/></g></g><g id="shape-0a2e693c-b0a7-80a0-8005-df276b0c1871"><g class="fills" id="fills-0a2e693c-b0a7-80a0-8005-df276b0c1871"><rect width="256" height="256" x="0" transform="matrix(1.000000, 0.000000, 0.000000, 1.000000, 0.000000, 0.000000)" style="fill: none;" ry="0" fill="none" rx="0" y="0"/></g></g></g></svg>
