<svg width="256" xmlns="http://www.w3.org/2000/svg" height="256" id="screenshot-0a2e693c-b0a7-80a0-8005-df25c85d7219" viewBox="0 0 256 256" xmlns:xlink="http://www.w3.org/1999/xlink" fill="none" version="1.1"><g id="shape-0a2e693c-b0a7-80a0-8005-df25c85d7219" width="256px" height="256px" rx="0" ry="0" style="fill: rgb(0, 0, 0);"><g id="shape-b740a10b-06f6-8056-8005-dfa4cc4c9d25"><g class="fills" id="fills-b740a10b-06f6-8056-8005-dfa4cc4c9d25"><rect width="256" height="256" x="0" transform="matrix(1.000000, 0.000000, 0.000000, 1.000000, 0.000000, 0.000000)" style="fill: none;" ry="0" fill="none" rx="0" y="0"/></g></g><g id="shape-b740a10b-06f6-8056-8005-dfa46b1b5f13"><g class="fills" id="fills-b740a10b-06f6-8056-8005-dfa46b1b5f13"><path d="M24.000,184.000C24.000,175.169,31.169,168.000,40.000,168.000L216.000,168.000C224.831,168.000,232.000,175.169,232.000,184.000L232.000,202.000C232.000,210.831,224.831,218.000,216.000,218.000L40.000,218.000C31.169,218.000,24.000,210.831,24.000,202.000L24.000,184.000ZM177.000,191.000L177.000,195.000C177.000,199.415,180.585,203.000,185.000,203.000L209.000,203.000C213.415,203.000,217.000,199.415,217.000,195.000L217.000,191.000C217.000,186.585,213.415,183.000,209.000,183.000L185.000,183.000C180.585,183.000,177.000,186.585,177.000,191.000Z" style="fill: rgb(0, 0, 0); fill-opacity: 1;"/></g></g><g id="shape-b740a10b-06f6-8056-8005-dfa47cf08b67"><g class="fills" id="fills-b740a10b-06f6-8056-8005-dfa47cf08b67"><path d="M24.000,120.000C24.000,111.169,31.169,104.000,40.000,104.000L216.000,104.000C224.831,104.000,232.000,111.169,232.000,120.000L232.000,138.000C232.000,146.831,224.831,154.000,216.000,154.000L40.000,154.000C31.169,154.000,24.000,146.831,24.000,138.000L24.000,120.000ZM177.000,126.000L177.000,130.000C177.000,134.415,180.585,138.000,185.000,138.000L209.000,138.000C213.415,138.000,217.000,134.415,217.000,130.000L217.000,126.000C217.000,121.585,213.415,118.000,209.000,118.000L185.000,118.000C180.585,118.000,177.000,121.585,177.000,126.000Z" style="fill: rgb(0, 0, 0); fill-opacity: 1;"/></g></g><g id="shape-b740a10b-06f6-8056-8005-dfa480ce0f91"><g class="fills" id="fills-b740a10b-06f6-8056-8005-dfa480ce0f91"><path d="M24.000,55.000C24.000,46.169,31.169,39.000,40.000,39.000L216.000,39.000C224.831,39.000,232.000,46.169,232.000,55.000L232.000,73.000C232.000,81.831,224.831,89.000,216.000,89.000L40.000,89.000C31.169,89.000,24.000,81.831,24.000,73.000L24.000,55.000ZM177.000,62.000L177.000,66.000C177.000,70.415,180.585,74.000,185.000,74.000L209.000,74.000C213.415,74.000,217.000,70.415,217.000,66.000L217.000,62.000C217.000,57.585,213.415,54.000,209.000,54.000L185.000,54.000C180.585,54.000,177.000,57.585,177.000,62.000Z" style="fill: rgb(0, 0, 0); fill-opacity: 1;"/></g></g></g></svg>