<svg width="256" xmlns="http://www.w3.org/2000/svg" height="256" id="screenshot-5a425cc1-eb2e-80f0-8006-4e3b367c9a1b" viewBox="0 -0 256 256" xmlns:xlink="http://www.w3.org/1999/xlink" fill="none" version="1.1"><g id="shape-5a425cc1-eb2e-80f0-8006-4e3b367c9a1b"><defs><clipPath id="frame-clip-5a425cc1-eb2e-80f0-8006-4e3b367c9a1b-render-1" class="frame-clip frame-clip-def"><rect rx="0" ry="0" x="0" y="0" width="256" height="256.0000000000001" transform="matrix(1.000000, 0.000000, 0.000000, 1.000000, 0.000000, 0.000000)"/></clipPath></defs><g><g><g clip-path="url(#frame-clip-5a425cc1-eb2e-80f0-8006-4e3b367c9a1b-render-1)" fill="none"><g class="fills" id="fills-5a425cc1-eb2e-80f0-8006-4e3b367c9a1b"><rect width="256" height="256.0000000000001" class="frame-background" x="0" transform="matrix(1.000000, 0.000000, 0.000000, 1.000000, 0.000000, 0.000000)" style="fill: rgb(255, 255, 255); fill-opacity: 0;" ry="0" rx="0" y="0"/></g><g class="frame-children"><g id="shape-08fd1c06-fa83-8059-8006-bd22c933094e" width="800px" height="800px" rx="0" ry="0" style="fill: rgb(0, 0, 0);"><g id="shape-08fd1c06-fa83-8059-8006-bd22c93357eb" style="display: none;"><g class="fills" id="fills-08fd1c06-fa83-8059-8006-bd22c93357eb"><rect width="167.00000000000023" height="166.99999999999983" x="45" transform="matrix(1.000000, 0.000000, 0.000000, 1.000000, 0.000000, 0.000000)" style="fill: none;" ry="0" fill="none" rx="0" y="44.999999999999886"/></g></g><g id="shape-08fd1c06-fa83-8059-8006-bd22c933bd81"><g class="fills" id="fills-08fd1c06-fa83-8059-8006-bd22c933bd81"><path d="M180.688,60.656C180.688,69.303,173.678,76.312,165.031,76.312C156.385,76.312,149.375,69.303,149.375,60.656C149.375,52.010,156.385,45.000,165.031,45.000C173.678,45.000,180.688,52.010,180.688,60.656ZZ" style="fill: rgb(0, 0, 0);"/></g></g><g id="shape-08fd1c06-fa83-8059-8006-bd22c933f640"><g class="fills" id="fills-08fd1c06-fa83-8059-8006-bd22c933f640"><path d="M109.931,77.611C103.087,76.242,96.011,78.384,91.076,83.320L74.151,100.245L88.912,115.005L105.837,98.080L121.290,101.171L103.389,128.712C82.320,130.835,65.875,148.622,65.875,170.250C65.875,193.307,84.567,212.000,107.625,212.000C130.683,212.000,149.375,193.307,149.375,170.250C149.375,166.646,148.918,163.149,148.060,159.814L169.929,159.814L159.491,201.564L181.009,201.564L190.180,164.876C193.474,151.700,183.510,138.938,169.929,138.938L138.109,138.938L163.145,103.173L156.641,86.953L109.931,77.611ZZM107.625,191.125C119.154,191.125,128.500,181.779,128.500,170.250C128.500,158.721,119.154,149.375,107.625,149.375C96.096,149.375,86.750,158.721,86.750,170.250C86.750,181.779,96.096,191.125,107.625,191.125ZZ" fill-rule="evenodd" clip-rule="evenodd" style="fill: rgb(0, 0, 0);"/></g></g></g></g></g></g></g></g></svg>