<svg width="576" height="611" viewBox="0 0 576 611" fill="none" xmlns="http://www.w3.org/2000/svg">
<g clip-path="url(#clip0_65_15)">
<mask id="path-1-inside-1_65_15" fill="white">
<path d="M576 615C576 577.442 568.602 540.252 554.23 505.553C539.857 470.853 518.79 439.325 492.233 412.767C465.675 386.21 434.147 365.143 399.447 350.77C364.748 336.398 327.558 329 290 329C252.442 329 215.252 336.398 180.553 350.77C145.853 365.143 114.325 386.21 87.7674 412.767C61.2099 439.325 40.1433 470.853 25.7704 505.553C11.3976 540.252 4 577.442 4 615L69.6737 615C69.6737 586.066 75.3726 557.416 86.445 530.685C97.5174 503.954 113.747 479.665 134.206 459.206C154.665 438.747 178.954 422.517 205.685 411.445C232.416 400.373 261.066 394.674 290 394.674C318.934 394.674 347.584 400.373 374.315 411.445C401.046 422.517 425.335 438.747 445.794 459.206C466.253 479.665 482.483 503.954 493.555 530.685C504.627 557.416 510.326 586.066 510.326 615H576Z"/>
</mask>
<path d="M576 615C576 577.442 568.602 540.252 554.23 505.553C539.857 470.853 518.79 439.325 492.233 412.767C465.675 386.21 434.147 365.143 399.447 350.77C364.748 336.398 327.558 329 290 329C252.442 329 215.252 336.398 180.553 350.77C145.853 365.143 114.325 386.21 87.7674 412.767C61.2099 439.325 40.1433 470.853 25.7704 505.553C11.3976 540.252 4 577.442 4 615L69.6737 615C69.6737 586.066 75.3726 557.416 86.445 530.685C97.5174 503.954 113.747 479.665 134.206 459.206C154.665 438.747 178.954 422.517 205.685 411.445C232.416 400.373 261.066 394.674 290 394.674C318.934 394.674 347.584 400.373 374.315 411.445C401.046 422.517 425.335 438.747 445.794 459.206C466.253 479.665 482.483 503.954 493.555 530.685C504.627 557.416 510.326 586.066 510.326 615H576Z" stroke="black" stroke-width="140" mask="url(#path-1-inside-1_65_15)"/>
<circle cx="289.5" cy="191.5" r="156.5" stroke="black" stroke-width="70"/>
</g>
<defs>
<clipPath id="clip0_65_15">
<rect width="576" height="611" fill="white"/>
</clipPath>
</defs>
</svg>
