<svg width="703" height="703" viewBox="0 0 703 703" fill="none" xmlns="http://www.w3.org/2000/svg">
<g clip-path="url(#clip0_54_11)">
<path d="M654 703C654 665.442 646.602 628.252 632.23 593.553C617.857 558.853 596.79 527.325 570.233 500.767C543.675 474.21 512.147 453.143 477.447 438.77C442.748 424.398 405.558 417 368 417C330.442 417 293.252 424.398 258.553 438.77C223.853 453.143 192.325 474.21 165.767 500.767C139.21 527.325 118.143 558.853 103.77 593.553C89.3976 628.252 82 665.442 82 703L368 703H654Z" fill="black"/>
<circle cx="367.5" cy="309.5" r="191.5" fill="black"/>
</g>
<defs>
<clipPath id="clip0_54_11">
<rect width="703" height="703" fill="white"/>
</clipPath>
</defs>
</svg>
