<svg width="615" xmlns="http://www.w3.org/2000/svg" height="615" id="screenshot-13d9dda4-c6e5-800d-8006-404078a472a4" viewBox="0 0 615 615" xmlns:xlink="http://www.w3.org/1999/xlink" fill="none" version="1.1"><g id="shape-13d9dda4-c6e5-800d-8006-404078a472a4" rx="0" ry="0" style="opacity: 1;"><g id="shape-13d9dda4-c6e5-800d-8006-404408cd9c1d"><g class="fills" id="fills-13d9dda4-c6e5-800d-8006-404408cd9c1d"><path d="M342.000,0.000L514.000,0.000C524.016,0.000,533.694,1.461,542.832,4.182C584.546,16.603,615.000,55.273,615.000,101.000L615.000,294.000L508.000,294.000C469.366,294.000,438.000,325.366,438.000,364.000L438.000,364.000C438.000,402.634,469.366,434.000,508.000,434.000L615.000,434.000L615.000,514.000C615.000,569.743,569.743,615.000,514.000,615.000L101.000,615.000C45.257,615.000,0.000,569.743,0.000,514.000L0.000,101.000C0.000,45.257,45.257,0.000,101.000,0.000L202.000,0.000L202.000,107.000C202.000,145.634,233.366,177.000,272.000,177.000L272.000,177.000C310.634,177.000,342.000,145.634,342.000,107.000L342.000,0.000Z" style="fill: rgb(255, 255, 255); fill-opacity: 0;"/></g><g id="strokes-13d9dda4-c6e5-800d-8006-404408cd9c1d" class="strokes"><g class="inner-stroke-shape"><defs><clipPath id="inner-stroke-render-2-13d9dda4-c6e5-800d-8006-404408cd9c1d-0"><use href="#stroke-shape-render-2-13d9dda4-c6e5-800d-8006-404408cd9c1d-0"/></clipPath><path d="M342.000,0.000L514.000,0.000C524.016,0.000,533.694,1.461,542.832,4.182C584.546,16.603,615.000,55.273,615.000,101.000L615.000,294.000L508.000,294.000C469.366,294.000,438.000,325.366,438.000,364.000L438.000,364.000C438.000,402.634,469.366,434.000,508.000,434.000L615.000,434.000L615.000,514.000C615.000,569.743,569.743,615.000,514.000,615.000L101.000,615.000C45.257,615.000,0.000,569.743,0.000,514.000L0.000,101.000C0.000,45.257,45.257,0.000,101.000,0.000L202.000,0.000L202.000,107.000C202.000,145.634,233.366,177.000,272.000,177.000L272.000,177.000C310.634,177.000,342.000,145.634,342.000,107.000L342.000,0.000Z" id="stroke-shape-render-2-13d9dda4-c6e5-800d-8006-404408cd9c1d-0" style="fill: none; stroke-width: 140; stroke: rgb(0, 0, 0); stroke-opacity: 1;"/></defs><use href="#stroke-shape-render-2-13d9dda4-c6e5-800d-8006-404408cd9c1d-0" clip-path="url('#inner-stroke-render-2-13d9dda4-c6e5-800d-8006-404408cd9c1d-0')"/></g></g></g></g></svg>