<svg width="615" xmlns="http://www.w3.org/2000/svg" height="615" id="screenshot-13d9dda4-c6e5-800d-8006-4044df947d9c" viewBox="0 0 615 615" xmlns:xlink="http://www.w3.org/1999/xlink" fill="none" version="1.1"><g id="shape-13d9dda4-c6e5-800d-8006-4044df947d9c" rx="0" ry="0" style="opacity: 1;"><g id="shape-13d9dda4-c6e5-800d-8006-4044df947d9d" style="opacity: 1;"><g class="fills" id="fills-13d9dda4-c6e5-800d-8006-4044df947d9d"><rect rx="101" ry="101" x="0" y="0" transform="matrix(1.000000, 0.000000, 0.000000, 1.000000, 0.000000, 0.000000)" width="615" height="615" style="fill: rgb(255, 255, 255); fill-opacity: 0;"/></g><g id="strokes-13d9dda4-c6e5-800d-8006-4044df947d9d" class="strokes"><g class="inner-stroke-shape" transform="matrix(1.000000, 0.000000, 0.000000, 1.000000, 0.000000, 0.000000)"><defs><clipPath id="inner-stroke-render-2-13d9dda4-c6e5-800d-8006-4044df947d9d-0"><use href="#stroke-shape-render-2-13d9dda4-c6e5-800d-8006-4044df947d9d-0"/></clipPath><rect rx="101" ry="101" x="0" y="0" width="615" height="615" id="stroke-shape-render-2-13d9dda4-c6e5-800d-8006-4044df947d9d-0" style="fill: none; stroke-width: 140; stroke: rgb(0, 0, 0); stroke-opacity: 1;"/></defs><use href="#stroke-shape-render-2-13d9dda4-c6e5-800d-8006-4044df947d9d-0" clip-path="url('#inner-stroke-render-2-13d9dda4-c6e5-800d-8006-4044df947d9d-0')"/></g></g></g><g id="shape-13d9dda4-c6e5-800d-8006-4044df947d9f" style="opacity: 1;"><g class="fills" id="fills-13d9dda4-c6e5-800d-8006-4044df947d9f"><rect rx="35.875" ry="35.875" x="275.0000004770968" y="402.9999979777531" transform="matrix(1.000000, 0.000000, 0.000000, 1.000000, 0.000000, 0.000000)" width="182.99999904580636" height="72.00000404449474" style="fill: rgb(0, 0, 0); fill-opacity: 1;"/></g></g><g id="shape-13d9dda4-c6e5-800d-8006-40453d50bbc1" style="opacity: 1;"><g class="fills" id="fills-13d9dda4-c6e5-800d-8006-40453d50bbc1"><rect rx="35.875" ry="35.875" x="274.9999995229032" y="128.0000032544749" transform="matrix(1.000000, 0.000000, 0.000000, 1.000000, 0.000000, 0.000000)" width="182.99999904580636" height="72.00000404449474" style="fill: rgb(0, 0, 0); fill-opacity: 1;"/></g></g><g id="shape-13d9dda4-c6e5-800d-8006-4044df947da0" style="opacity: 1;"><g class="fills" id="fills-13d9dda4-c6e5-800d-8006-4044df947da0"><rect rx="35.875" ry="35.875" x="-1.499997030673967" y="265.50000061611354" transform="matrix(0.000000, 1.000000, -1.000000, 0.000000, 473.500001, 129.499992)" width="347" height="72" style="fill: rgb(0, 0, 0); fill-opacity: 1;"/></g></g></g></svg>